<?xml version="1.0" encoding="UTF-8"?>
<svg xmlns="http://www.w3.org/2000/svg" xmlns:xlink="http://www.w3.org/1999/xlink" width="907.086614" height="510.23622" viewBox="0 0 907.086614 510.23622">
<defs>
<filter id="filter-remove-color-and-invert-alpha" x="0%" y="0%" width="100%" height="100%">
<feColorMatrix color-interpolation-filters="sRGB" values="0 0 0 0 1 0 0 0 0 1 0 0 0 0 1 0 0 0 -1 1"/>
</filter>
<filter id="filter-0" x="0%" y="0%" width="100%" height="100%">
<feImage xlink:href="#compositing-group-1" result="source" x="0" y="0" width="1088.503937" height="612.283465"/>
<feImage xlink:href="#compositing-group-2" result="destination" x="0" y="0" width="1088.503937" height="612.283465"/>
<feComposite in="source" in2="destination" operator="arithmetic" k1="0" k2="1" k3="1" k4="0" color-interpolation-filters="sRGB"/>
</filter>
<filter id="filter-1" x="0%" y="0%" width="100%" height="100%">
<feImage xlink:href="#compositing-group-4" result="source" x="0" y="0" width="1088.503937" height="612.283465"/>
<feImage xlink:href="#compositing-group-5" result="destination" x="0" y="0" width="1088.503937" height="612.283465"/>
<feComposite in="source" in2="destination" operator="arithmetic" k1="0" k2="1" k3="1" k4="0" color-interpolation-filters="sRGB"/>
</filter>
<filter id="filter-2" x="0%" y="0%" width="100%" height="100%">
<feImage xlink:href="#compositing-group-7" result="source" x="0" y="0" width="1088.503937" height="612.283465"/>
<feImage xlink:href="#compositing-group-8" result="destination" x="0" y="0" width="1088.503937" height="612.283465"/>
<feComposite in="source" in2="destination" operator="arithmetic" k1="0" k2="1" k3="1" k4="0" color-interpolation-filters="sRGB"/>
</filter>
<filter id="filter-3" x="0%" y="0%" width="100%" height="100%">
<feImage xlink:href="#compositing-group-10" result="source" x="0" y="0" width="1088.503937" height="612.283465"/>
<feImage xlink:href="#compositing-group-11" result="destination" x="0" y="0" width="1088.503937" height="612.283465"/>
<feComposite in="source" in2="destination" operator="arithmetic" k1="0" k2="1" k3="1" k4="0" color-interpolation-filters="sRGB"/>
</filter>
<filter id="filter-4" x="0%" y="0%" width="100%" height="100%">
<feImage xlink:href="#compositing-group-13" result="source" x="0" y="0" width="1088.503937" height="612.283465"/>
<feImage xlink:href="#compositing-group-14" result="destination" x="0" y="0" width="1088.503937" height="612.283465"/>
<feComposite in="source" in2="destination" operator="arithmetic" k1="0" k2="1" k3="1" k4="0" color-interpolation-filters="sRGB"/>
</filter>
<filter id="filter-5" x="0%" y="0%" width="100%" height="100%">
<feImage xlink:href="#compositing-group-16" result="source" x="0" y="0" width="1088.503937" height="612.283465"/>
<feImage xlink:href="#compositing-group-17" result="destination" x="0" y="0" width="1088.503937" height="612.283465"/>
<feComposite in="source" in2="destination" operator="arithmetic" k1="0" k2="1" k3="1" k4="0" color-interpolation-filters="sRGB"/>
</filter>
<g id="compositing-group-0" transform="translate(90.708661, 51.023622)">
<rect x="-90.708661" y="-51.023622" width="1088.503937" height="612.283465" fill="rgb(0%, 0%, 0%)" fill-opacity="0"/>
<path fill="none" stroke-width="2.26" stroke-linecap="round" stroke-linejoin="round" stroke="rgb(100%, 100%, 100%)" stroke-opacity="1" stroke-miterlimit="10" d="M 3.0625 437.050781 L 9.296875 434.378906 L 15.527344 431.707031 L 21.761719 429.039062 L 27.992188 426.367188 L 33.332031 424.585938 L 37.785156 421.914062 L 42.238281 418.355469 L 49.359375 413.902344 L 58.265625 409.449219 L 67.171875 405.886719 L 75.183594 402.324219 L 80.527344 399.65625 L 85.867188 396.984375 L 92.988281 395.203125 L 102.789062 393.421875 L 110.804688 391.640625 L 117.929688 389.859375 L 123.269531 388.078125 L 128.613281 386.296875 L 134.84375 383.628906 L 144.640625 381.847656 L 153.550781 380.066406 L 159.78125 378.285156 L 166.902344 376.503906 L 171.355469 374.722656 L 177.585938 372.941406 L 187.382812 371.160156 L 196.289062 370.269531 L 204.304688 369.378906 L 222.109375 369.378906 L 232.851562 368.484375 L 256.148438 368.484375 L 263.269531 369.375 L 273.0625 369.375 L 283.902344 370.277344 L 291.957031 371.171875 L 297.296875 371.171875 L 304.417969 372.0625 L 313.324219 373.84375 L 325.214844 375.671875 L 334.332031 376.585938 L 341.453125 378.367188 L 346.796875 379.257812 L 356.609375 381.933594 L 369.894531 383.832031 L 381.390625 384.789062 L 387.65625 386.578125 L 393.886719 387.46875 L 401.898438 389.25 L 413.6875 391.96875 L 422.847656 393.800781 L 429.078125 395.582031 L 434.421875 396.472656 L 442.433594 399.144531 L 452.261719 402.714844 L 464.691406 408.453125 L 471.070312 412.097656 L 477.300781 415.660156 L 482.644531 421 L 491.578125 426.363281 L 500.578125 430.863281 L 509.484375 434.425781 L 514.824219 438.875 L 520.167969 443.328125 L 524.617188 447.78125 L 531.742188 454.011719 L 537.972656 460.242188 L 546.03125 467.40625 L 552.296875 470.988281 L 558.527344 475.4375 L 561.199219 478.109375 L 566.542969 483.449219 L 571.882812 490.574219 L 577.226562 496.804688 L 582.566406 502.148438 L 587.910156 507.488281 "/>
</g>
<mask id="mask-0">
<use xlink:href="#compositing-group-0"/>
</mask>
<mask id="mask-1">
<use xlink:href="#compositing-group-0" filter="url(#filter-remove-color-and-invert-alpha)"/>
</mask>
<g id="compositing-group-1" mask="url(#mask-0)">
<g transform="translate(90.708661, 51.023622)">
<rect x="-90.708661" y="-51.023622" width="1088.503937" height="612.283465" fill="rgb(20%, 20%, 80%)" fill-opacity="1"/>
</g>
</g>
<g id="compositing-group-2" mask="url(#mask-1)">
<g transform="translate(90.708661, 51.023622)">
<rect x="-90.708661" y="-51.023622" width="1088.503937" height="612.283465" fill="rgb(98.039216%, 94.117647%, 90.196078%)" fill-opacity="1"/>
</g>
</g>
<g id="compositing-group-3" transform="translate(90.708661, 51.023622)">
<rect x="-90.708661" y="-51.023622" width="1088.503937" height="612.283465" fill="rgb(0%, 0%, 0%)" fill-opacity="0"/>
<path fill="none" stroke-width="2.26" stroke-linecap="round" stroke-linejoin="round" stroke="rgb(100%, 100%, 100%)" stroke-opacity="1" stroke-miterlimit="10" d="M 419.46875 508.179688 L 424.8125 501.949219 L 432.050781 491.996094 L 436.65625 483.703125 L 440.21875 478.359375 L 446.492188 469.398438 L 459.617188 452.992188 L 475.230469 433.472656 L 482.617188 425.035156 L 490.90625 415.824219 L 504.136719 400.386719 L 522.304688 382.21875 L 538.132812 370.042969 L 546.996094 364.136719 L 562.707031 352.613281 L 586.96875 337.785156 L 603.167969 326.570312 L 613.152344 319.582031 L 636.644531 309.011719 L 655.804688 302.625 L 665.527344 298.734375 L 684.902344 290.125 L 708.476562 282.265625 L 717.8125 278.117188 L 736.871094 269.644531 L 762.390625 261.585938 L 774.472656 257.195312 L 786.71875 253.425781 L 812.007812 247.40625 L 826.003906 243.90625 L 836.117188 240.230469 L 854.054688 232.839844 L 869.792969 228.34375 L 879.253906 224.5625 L 890.34375 219.015625 "/>
</g>
<mask id="mask-2">
<use xlink:href="#compositing-group-3"/>
</mask>
<mask id="mask-3">
<use xlink:href="#compositing-group-3" filter="url(#filter-remove-color-and-invert-alpha)"/>
</mask>
<g id="compositing-group-4" mask="url(#mask-2)">
<g transform="translate(90.708661, 51.023622)">
<rect x="-90.708661" y="-51.023622" width="1088.503937" height="612.283465" fill="rgb(20%, 20%, 80%)" fill-opacity="1"/>
</g>
</g>
<g id="compositing-group-5" mask="url(#mask-3)">
<g transform="translate(90.708661, 51.023622)">
<g filter="url(#filter-0)" transform="translate(-90.708661, -51.023622)">
<rect x="0" y="0" width="1088.503937" height="612.283465" fill="rgb(0%, 0%, 0%)" fill-opacity="1"/>
</g>
</g>
</g>
<g id="compositing-group-6" transform="translate(90.708661, 51.023622)">
<rect x="-90.708661" y="-51.023622" width="1088.503937" height="612.283465" fill="rgb(0%, 0%, 0%)" fill-opacity="0"/>
<path fill="none" stroke-width="2.26" stroke-linecap="round" stroke-linejoin="round" stroke="rgb(100%, 100%, 100%)" stroke-opacity="1" stroke-miterlimit="10" d="M 706.242188 2.328125 L 703.574219 11.230469 L 702.683594 16.570312 L 700.902344 25.472656 L 699.074219 37.363281 L 697.160156 49.804688 L 696.25 58.902344 L 695.359375 66.917969 L 695.359375 97.90625 L 697.140625 105.921875 L 698.917969 114.824219 L 701.671875 126.746094 L 704.578125 139.335938 L 707.304688 147.523438 L 711.757812 155.535156 L 717.261719 166.550781 L 723.203125 179.417969 L 727.882812 187.84375 L 731.445312 194.074219 L 736.804688 203.007812 L 743.433594 214.371094 L 752.265625 224.183594 L 763.273438 234.191406 L 771.910156 240.910156 L 779.046875 247.152344 L 793.570312 259.601562 L 815.75 273.957031 L 828.613281 284.480469 L 838.238281 291.21875 L 855.292969 300.808594 L 875.375 313.359375 L 884.828125 319.664062 L 894.933594 326.09375 "/>
</g>
<mask id="mask-4">
<use xlink:href="#compositing-group-6"/>
</mask>
<mask id="mask-5">
<use xlink:href="#compositing-group-6" filter="url(#filter-remove-color-and-invert-alpha)"/>
</mask>
<g id="compositing-group-7" mask="url(#mask-4)">
<g transform="translate(90.708661, 51.023622)">
<rect x="-90.708661" y="-51.023622" width="1088.503937" height="612.283465" fill="rgb(20%, 20%, 80%)" fill-opacity="1"/>
</g>
</g>
<g id="compositing-group-8" mask="url(#mask-5)">
<g transform="translate(90.708661, 51.023622)">
<g filter="url(#filter-1)" transform="translate(-90.708661, -51.023622)">
<rect x="0" y="0" width="1088.503937" height="612.283465" fill="rgb(0%, 0%, 0%)" fill-opacity="1"/>
</g>
</g>
</g>
<g id="compositing-group-9" transform="translate(90.708661, 51.023622)">
<rect x="-90.708661" y="-51.023622" width="1088.503937" height="612.283465" fill="rgb(0%, 0%, 0%)" fill-opacity="0"/>
<path fill="none" stroke-width="2.26" stroke-linecap="round" stroke-linejoin="round" stroke="rgb(100%, 100%, 100%)" stroke-opacity="1" stroke-miterlimit="10" d="M 375.222656 1.34375 L 368.988281 8.46875 L 365.429688 12.917969 L 361.867188 17.371094 L 357.417969 21.824219 L 352.074219 27.164062 L 346.734375 33.394531 L 342.28125 40.519531 L 338.710938 50.339844 L 336.03125 56.585938 L 334.25 61.929688 L 333.359375 69.050781 L 333.359375 78.84375 L 334.25 88.636719 L 336.921875 97.542969 L 339.59375 104.664062 L 344.933594 112.675781 L 350.585938 124.921875 L 356.519531 136.789062 L 360.214844 146.023438 L 365.554688 154.039062 L 372.101562 165.257812 L 382.253906 176.425781 L 391.289062 186.464844 L 399.78125 194.015625 L 408.296875 203.472656 L 416.246094 215.402344 L 426.503906 226.683594 L 436.695312 236.875 L 445.574219 246.738281 L 455.960938 260.242188 L 462.070312 271.445312 L 469.75 282.003906 L 476.246094 289.429688 L 484.824219 300.863281 L 490.742188 311.710938 L 495.308594 320.847656 L 500.652344 336.878906 L 502.433594 344.890625 L 502.433594 359.132812 L 501.542969 365.367188 L 498.871094 371.597656 L 494.417969 378.722656 L 488.1875 384.0625 L 478.050781 392.355469 L 470.554688 398.917969 L 463.429688 405.148438 L 448.0625 415.394531 L 429.261719 421.269531 L 415.589844 425.476562 L 404.082031 429.3125 L 379.308594 435.210938 L 360.492188 438.972656 L 343.082031 443.328125 L 304.449219 449.269531 L 282.78125 453.605469 L 245.089844 460.851562 L 219.277344 465.40625 L 197.59375 470.226562 L 159.796875 474.761719 L 144.25 477.351562 L 109.605469 480.015625 L 88.242188 482.867188 L 1.535156 482.867188 "/>
</g>
<mask id="mask-6">
<use xlink:href="#compositing-group-9"/>
</mask>
<mask id="mask-7">
<use xlink:href="#compositing-group-9" filter="url(#filter-remove-color-and-invert-alpha)"/>
</mask>
<g id="compositing-group-10" mask="url(#mask-6)">
<g transform="translate(90.708661, 51.023622)">
<rect x="-90.708661" y="-51.023622" width="1088.503937" height="612.283465" fill="rgb(20%, 20%, 80%)" fill-opacity="1"/>
</g>
</g>
<g id="compositing-group-11" mask="url(#mask-7)">
<g transform="translate(90.708661, 51.023622)">
<g filter="url(#filter-2)" transform="translate(-90.708661, -51.023622)">
<rect x="0" y="0" width="1088.503937" height="612.283465" fill="rgb(0%, 0%, 0%)" fill-opacity="1"/>
</g>
</g>
</g>
<g id="compositing-group-12" transform="translate(90.708661, 51.023622)">
<rect x="-90.708661" y="-51.023622" width="1088.503937" height="612.283465" fill="rgb(0%, 0%, 0%)" fill-opacity="0"/>
<path fill="none" stroke-width="2.26" stroke-linecap="round" stroke-linejoin="round" stroke="rgb(100%, 100%, 100%)" stroke-opacity="1" stroke-miterlimit="10" d="M 0.761719 304.324219 L 5.210938 301.652344 L 11.445312 298.089844 L 19.457031 292.75 L 30.574219 287.191406 L 40.976562 282.464844 L 49.03125 278.882812 L 55.261719 275.320312 L 67.0625 270.785156 L 81.097656 267.773438 L 91.558594 264.921875 L 99.585938 261.355469 L 111.613281 256.730469 L 130.320312 250.128906 L 143.105469 245.867188 L 153.269531 242.167969 L 171.054688 235.890625 L 191.363281 231.113281 L 201.40625 228.101562 L 217.117188 225.15625 L 238.054688 222.828125 L 249.449219 219.71875 L 261.503906 218.792969 L 286.042969 217.625 L 304.386719 216.402344 L 383.210938 216.402344 L 406.355469 220.257812 L 416.519531 221.277344 L 438.238281 225.617188 L 461.859375 230.867188 L 472.21875 235.011719 L 489.695312 241.179688 L 514.023438 248.863281 L 523.59375 253.117188 L 534.574219 258.605469 L 551.679688 266.089844 L 567.394531 273.949219 L 576.109375 279.757812 L 588.789062 288.535156 L 607.886719 301.667969 L 621.683594 310.863281 L 628.148438 316.40625 L 639.753906 327.042969 L 653.132812 339.308594 L 664.914062 350.015625 L 673.925781 360.03125 L 681.488281 368.535156 L 691.25 379.277344 L 700.433594 390.5 L 710.636719 401.722656 L 718.433594 410.496094 L 725.890625 419.820312 L 731.378906 428.046875 L 737.707031 437.089844 L 742.1875 444.257812 L 746.640625 451.382812 L 750.203125 456.722656 L 753.761719 461.175781 L 758.214844 470.078125 L 760.886719 475.421875 L 764.445312 481.652344 L 767.117188 486.105469 L 771.570312 494.117188 L 773.347656 496.789062 L 776.910156 502.128906 L 780.472656 505.691406 L 784.03125 510.140625 "/>
</g>
<mask id="mask-8">
<use xlink:href="#compositing-group-12"/>
</mask>
<mask id="mask-9">
<use xlink:href="#compositing-group-12" filter="url(#filter-remove-color-and-invert-alpha)"/>
</mask>
<g id="compositing-group-13" mask="url(#mask-8)">
<g transform="translate(90.708661, 51.023622)">
<rect x="-90.708661" y="-51.023622" width="1088.503937" height="612.283465" fill="rgb(20%, 20%, 80%)" fill-opacity="1"/>
</g>
</g>
<g id="compositing-group-14" mask="url(#mask-9)">
<g transform="translate(90.708661, 51.023622)">
<g filter="url(#filter-3)" transform="translate(-90.708661, -51.023622)">
<rect x="0" y="0" width="1088.503937" height="612.283465" fill="rgb(0%, 0%, 0%)" fill-opacity="1"/>
</g>
</g>
</g>
<g id="compositing-group-15" transform="translate(90.708661, 51.023622)">
<rect x="-90.708661" y="-51.023622" width="1088.503937" height="612.283465" fill="rgb(0%, 0%, 0%)" fill-opacity="0"/>
<path fill="none" stroke-width="2.26" stroke-linecap="round" stroke-linejoin="round" stroke="rgb(100%, 100%, 100%)" stroke-opacity="1" stroke-miterlimit="10" d="M 3.089844 151.234375 L 12.082031 146.734375 L 20.097656 142.285156 L 24.546875 138.722656 L 31.671875 135.160156 L 41.503906 131.585938 L 52.617188 127.882812 L 61.65625 126.074219 L 68.777344 124.292969 L 73.230469 123.402344 L 82.132812 121.621094 L 91.945312 118.945312 L 101.796875 118.050781 L 108.027344 117.160156 L 113.371094 116.269531 L 119.601562 115.378906 L 127.613281 113.597656 L 135.625 113.597656 L 143.640625 112.707031 L 165.007812 112.707031 L 171.238281 113.597656 L 181.039062 115.378906 L 188.167969 116.269531 L 194.398438 117.160156 L 197.960938 118.050781 L 203.300781 119.832031 L 210.425781 120.722656 L 218.4375 123.394531 L 226.449219 124.285156 L 234.460938 126.0625 L 239.804688 127.84375 L 244.253906 128.734375 L 249.597656 130.515625 L 255.828125 132.296875 L 264.730469 134.96875 L 272.746094 137.636719 L 278.976562 140.308594 L 284.320312 142.089844 L 289.660156 143.871094 L 297.671875 147.429688 L 306.574219 150.101562 L 315.480469 152.773438 L 327.941406 156.335938 L 333.285156 158.113281 L 342.1875 159.894531 L 352.9375 160.792969 L 362.875 160.792969 L 369.996094 161.683594 L 375.339844 161.683594 L 383.351562 162.570312 L 420.742188 162.570312 L 426.085938 161.683594 L 430.535156 160.792969 L 435.878906 159.011719 L 440.332031 157.230469 L 444.78125 155.449219 L 448.34375 153.667969 L 451.902344 151.886719 L 454.574219 149.21875 L 457.246094 145.65625 L 460.808594 141.203125 L 462.585938 138.535156 L 463.476562 133.191406 L 464.367188 130.523438 L 464.367188 113.605469 L 463.476562 110.042969 L 461.695312 105.59375 L 459.917969 102.921875 L 456.355469 98.472656 L 454.574219 96.691406 L 450.125 92.238281 L 446.5625 90.457031 L 443 88.679688 L 439.441406 86.898438 L 436.769531 85.117188 L 434.097656 84.226562 L 432.316406 83.335938 L 430.535156 83.335938 L 427.867188 82.445312 L 423.414062 80.664062 L 418.074219 79.773438 L 413.621094 78.882812 L 409.171875 78.882812 L 402.9375 77.996094 L 399.375 77.996094 L 393.144531 77.105469 L 390.472656 77.105469 L 386.023438 76.214844 L 383.351562 76.214844 L 378.007812 75.324219 L 372.667969 75.324219 L 365.546875 74.433594 L 337.054688 74.433594 L 330.824219 75.324219 L 326.371094 76.214844 L 320.140625 77.996094 L 316.578125 77.996094 L 312.128906 78.882812 L 308.566406 79.773438 L 305.894531 80.664062 L 304.117188 81.554688 L 298.773438 85.117188 L 296.992188 86.007812 L 293.433594 88.679688 L 290.761719 92.238281 L 288.089844 97.582031 L 287.199219 99.359375 L 284.527344 102.921875 L 282.75 105.59375 L 281.859375 109.15625 L 280.96875 112.714844 L 280.96875 115.386719 L 280.078125 118.949219 L 280.078125 122.507812 L 279.1875 126.960938 L 279.1875 161.683594 L 280.078125 165.242188 L 280.96875 168.804688 L 282.75 170.585938 L 284.527344 173.253906 L 286.308594 175.925781 L 288.980469 179.488281 L 291.652344 184.828125 L 292.542969 186.609375 L 296.992188 191.0625 L 304.117188 197.292969 L 311.238281 200.855469 L 318.359375 204.414062 L 325.484375 207.085938 L 329.042969 208.867188 L 335.277344 211.539062 L 341.507812 215.097656 L 349.519531 218.660156 L 357.53125 221.332031 L 365.546875 224.003906 L 372.667969 225.78125 L 378.007812 227.5625 L 387.820312 230.238281 L 397.671875 232.03125 L 406.578125 232.921875 L 435.070312 232.921875 L 443.972656 231.140625 L 451.984375 229.359375 L 457.324219 227.578125 L 462.667969 224.90625 L 468.007812 222.238281 L 476.023438 218.675781 L 483.144531 215.113281 L 490.265625 211.554688 L 497.390625 206.210938 L 502.730469 201.761719 L 508.074219 194.636719 L 514.3125 186.613281 L 521.695312 177.386719 L 527.097656 171.085938 L 536.582031 159.699219 L 545.082031 145.890625 L 551.027344 134.992188 L 555.664062 124.789062 L 560.546875 111.121094 L 566.699219 97.789062 L 573.855469 84.496094 L 580.585938 75.84375 L 590.359375 64.113281 L 598.695312 51.609375 L 603.433594 42.132812 L 607.886719 35.007812 L 613.230469 28.777344 L 622.4375 19.570312 L 632.175781 11.777344 L 638.472656 6.378906 L 644.707031 0.148438 "/>
</g>
<mask id="mask-10">
<use xlink:href="#compositing-group-15"/>
</mask>
<mask id="mask-11">
<use xlink:href="#compositing-group-15" filter="url(#filter-remove-color-and-invert-alpha)"/>
</mask>
<g id="compositing-group-16" mask="url(#mask-10)">
<g transform="translate(90.708661, 51.023622)">
<rect x="-90.708661" y="-51.023622" width="1088.503937" height="612.283465" fill="rgb(20%, 20%, 80%)" fill-opacity="1"/>
</g>
</g>
<g id="compositing-group-17" mask="url(#mask-11)">
<g transform="translate(90.708661, 51.023622)">
<g filter="url(#filter-4)" transform="translate(-90.708661, -51.023622)">
<rect x="0" y="0" width="1088.503937" height="612.283465" fill="rgb(0%, 0%, 0%)" fill-opacity="1"/>
</g>
</g>
</g>
</defs>
<g filter="url(#filter-5)" transform="translate(-90.708661, -51.023622)">
<rect x="0" y="0" width="1088.503937" height="612.283465" fill="rgb(0%, 0%, 0%)" fill-opacity="1"/>
</g>
</svg>
